Two Jedi knights uncover a wider conflict when they are sent as emissaries to the blockaded planet Naboo.

Director:
George Lucas
Writer:
George Lucas
Stars:
Ewan McGregor, Liam Neeson and Natalie Portman 

Media info:

General
Complete name                    : E:\torrent2\Star Wars Sixtology.BluRayrip.mkv.1080p.DTS-5.1\Star.Wars.Episode.1.The.Phantom.Menace.1999.BluRayrip.mkv.1080p.AVC.DTS-5.1-ACB-Team\Star.Wars.Episode.1.The.Phantom.Menace.1999.BluRayrip.mkv.1080p.AVC.DTS-5.1-ACB-Team.mkv
Format                           : Matroska
File size                        : 12.7 GiB
Duration                         : 2h 16mn
Overall bit rate                 : 13.3 Mbps
Movie name                       : movie
Encoded date                     : UTC 2011-09-13 16:04:51
Writing application              : mkvmerge v3.2.0 ('Beginnings') built on Feb 12 2010 16:46:17
Writing library                  : libebml v0.7.9 + libmatroska v0.8.1

Video
ID                               : 1
Format                           : AVC
Format/Info                      : Advanced Video Codec
Format profile                   : High@L4.1
Format settings, CABAC           : Yes
Format settings, ReFrames        : 2 frames
Format settings, GOP             : M=4, N=16
Muxing mode                      : Container profile=Unknown@0.0
Codec ID                         : V_MPEG4/ISO/AVC
Duration                         : 2h 16mn
Bit rate mode                    : Variable
Bit rate                         : 11.4 Mbps
Maximum bit rate                 : 35.0 Mbps
Width                            : 1 920 pixels
Height                           : 1 080 pixels
Display aspect ratio             : 16:9
Frame rate                       : 23.976 fps
Color space                      : YUV
Chroma subsampling               : 4:2:0
Bit depth                        : 8 bits
Scan type                        : Progressive
Bits/(Pixel*Frame)               : 0.230
Stream size                      : 11.0 GiB (87%)
Writing library                  : x264 core 116 r2057 0ba8a9c
Encoding settings                : cabac=1 / ref=1 / deblock=1:0:0 / analyse=0x3:0x3 / me=dia / subme=1 / psy=1 / psy_rd=1.00:0.00 / mixed_ref=0 / me_range=16 / chroma_me=1 / trellis=0 / 8x8dct=1 / cqm=0 / deadzone=21,11 / fast_pskip=1 / chroma_qp_offset=0 / threads=3 / sliced_threads=0 / slices=4 / nr=0 / decimate=1 / interlaced=0 / bluray_compat=1 / constrained_intra=0 / bframes=3 / b_pyramid=0 / b_adapt=1 / b_bias=0 / direct=1 / weightb=1 / open_gop=0 / weightp=1 / keyint=24 / keyint_min=1 / scenecut=40 / intra_refresh=0 / rc_lookahead=0 / rc=abr / mbtree=0 / bitrate=11425 / ratetol=1.0 / qcomp=0.60 / qpmin=0 / qpmax=69 / qpstep=4 / vbv_maxrate=35000 / vbv_bufsize=30000 / nal_hrd=vbr / ip_ratio=1.10 / pb_ratio=1.10 / aq=1:1.00

Audio
ID                               : 2
Format                           : DTS
Format/Info                      : Digital Theater Systems
Format profile                   : ES
Codec ID                         : A_DTS
Duration                         : 2h 16mn
Bit rate mode                    : Constant
Bit rate                         : 1 510 Kbps
Channel(s)                       : 7 channels
Channel positions                : Front: L C R, Side: L R, Back: C, LFE
Sampling rate                    : 48.0 KHz
Bit depth                        : 24 bits
Stream size                      : 1.44 GiB (11%)
Language                         : English

Text #1
ID                               : 3
Format                           : VobSub
Muxing mode                      : zlib
Codec ID                         : S_VOBSUB
Codec ID/Info                    : The same subtitle format used on DVDs
Language                         : English

Text #2
ID                               : 4
Format                           : VobSub
Muxing mode                      : zlib
Codec ID                         : S_VOBSUB
Codec ID/Info                    : The same subtitle format used on DVDs
Language                         : Spanish

Text #3
ID                               : 5
Format                           : VobSub
Muxing mode                      : zlib
Codec ID                         : S_VOBSUB
Codec ID/Info                    : The same subtitle format used on DVDs
Language                         : Dutch

Text #4
ID                               : 6
Format                           : VobSub
Muxing mode                      : zlib
Codec ID                         : S_VOBSUB
Codec ID/Info                    : The same subtitle format used on DVDs
Language                         : Portuguese

Text #5
ID                               : 7
Format                           : VobSub
Muxing mode                      : zlib
Codec ID                         : S_VOBSUB
Codec ID/Info                    : The same subtitle format used on DVDs
Language                         : Finnish

Text #6
ID                               : 8
Format                           : VobSub
Muxing mode                      : zlib
Codec ID                         : S_VOBSUB
Codec ID/Info                    : The same subtitle format used on DVDs
Language                         : Swedish

Text #7
ID                               : 9
Format                           : VobSub
Muxing mode                      : zlib
Codec ID                         : S_VOBSUB
Codec ID/Info                    : The same subtitle format used on DVDs
Language                         : Norwegian

Text #8
ID                               : 10
Format                           : VobSub
Muxing mode                      : zlib
Codec ID                         : S_VOBSUB
Codec ID/Info                    : The same subtitle format used on DVDs
Language                         : Danish

Menu
00:00:00.000                     : en:00:00:00.000
00:00:21.104                     : en:00:00:21.104
00:01:52.737                     : en:00:01:52.737
00:07:55.349                     : en:00:07:55.349
00:09:55.970                     : en:00:09:55.970
00:11:18.761                     : en:00:11:18.761
00:13:24.178                     : en:00:13:24.178
00:14:49.805                     : en:00:14:49.805
00:17:14.241                     : en:00:17:14.241
00:20:40.948                     : en:00:20:40.948
00:22:25.302                     : en:00:22:25.302
00:25:12.886                     : en:00:25:12.886
00:29:32.812                     : en:00:29:32.812
00:31:41.482                     : en:00:31:41.482
00:35:51.732                     : en:00:35:51.732
00:40:48.571                     : en:00:40:48.571
00:44:16.320                     : en:00:44:16.320
00:52:04.579                     : en:00:52:04.579
00:55:03.842                     : en:00:55:03.842
00:58:27.921                     : en:00:58:27.921
01:02:27.702                     : en:01:02:27.702
01:05:33.012                     : en:01:05:33.012
01:10:06.911                     : en:01:10:06.911
01:11:17.940                     : en:01:11:17.940
01:16:20.951                     : en:01:16:20.951
01:18:08.100                     : en:01:18:08.100
01:20:26.363                     : en:01:20:26.363
01:24:18.178                     : en:01:24:18.178
01:26:44.782                     : en:01:26:44.782
01:29:54.722                     : en:01:29:54.722
01:31:02.415                     : en:01:31:02.415
01:33:08.541                     : en:01:33:08.541
01:37:21.418                     : en:01:37:21.418
01:39:06.315                     : en:01:39:06.315
01:42:33.730                     : en:01:42:33.730
01:44:41.566                     : en:01:44:41.566
01:46:19.247                     : en:01:46:19.247
01:48:07.731                     : en:01:48:07.731
01:50:24.951                     : en:01:50:24.951
01:56:47.667                     : en:01:56:47.667
01:59:13.062                     : en:01:59:13.062
02:00:31.390                     : en:02:00:31.390
02:01:21.315                     : en:02:01:21.315
02:02:23.377                     : en:02:02:23.377
02:03:56.971                     : en:02:03:56.971
02:05:15.132                     : en:02:05:15.132
02:06:25.995                     : en:02:06:25.995
02:07:23.177                     : en:02:07:23.177
02:08:28.992                     : en:02:08:28.992
02:09:53.535                     : en:02:09:53.535


